<svg xmlns="http://www.w3.org/2000/svg" xmlns:xlink="http://www.w3.org/1999/xlink" width="352" height="270" viewBox="0 0 352 270">
  <defs>
    <clipPath id="clip-Prancheta_1">
      <rect width="352" height="270"/>
    </clipPath>
  </defs>
  <g id="Prancheta_1" data-name="Prancheta 1" clip-path="url(#clip-Prancheta_1)">
    <rect width="352" height="270" fill="rgba(255,255,255,0)"/>
    <g id="组_20" data-name="组 20" transform="translate(-69 -111)" opacity="0.41">
      <g id="组_19" data-name="组 19">
        <path id="路径_21" data-name="路径 21" d="M411.512,300.613a104.676,104.676,0,0,0-47.675-93.27,22.163,22.163,0,0,1-9.932-16.161q-.06-.536-.126-1.073c-5.455-43.71-46.308-74.417-89.822-68.5-41.622,5.664-71.586,27.658-67.16,70.014.021.2.044.489.068.856A20.226,20.226,0,0,1,177.049,214q-3.627.087-7.3.468a90.534,90.534,0,0,0-51.509,156.79H377.085C396.761,352.432,410.361,326.31,411.512,300.613Z" fill="#c5d9ff"/>
      </g>
    </g>
    <circle id="椭圆_5" data-name="椭圆 5" cx="9.398" cy="9.398" r="9.398" transform="translate(38.206 71.498) rotate(-80.783)" fill="#c5d9ff" opacity="0.31"/>
    <circle id="椭圆_6" data-name="椭圆 6" cx="9.398" cy="9.398" r="9.398" transform="translate(295.835 18.213)" fill="#c5d9ff" opacity="0.31"/>
    <path id="路径_22" data-name="路径 22" d="M410.128,186a6.4,6.4,0,1,1-6.4-6.4A6.4,6.4,0,0,1,410.128,186Z" transform="translate(-69 -111)" fill="#c5d9ff" opacity="0.31"/>
    <g id="组_24" data-name="组 24" transform="translate(-69 -111)">
      <g id="组_23" data-name="组 23">
        <g id="组_22" data-name="组 22">
          <g id="组_21" data-name="组 21">
            <path id="路径_23" data-name="路径 23" d="M387.78,311.009a89.272,89.272,0,0,0-40.66-79.546,18.9,18.9,0,0,1-8.47-13.782q-.051-.457-.108-.915c-4.652-37.279-39.494-63.467-76.6-58.417-35.5,4.83-61.053,23.587-57.278,59.711.018.17.037.417.058.73a17.251,17.251,0,0,1-16.9,18.354q-3.093.073-6.226.4a77.211,77.211,0,0,0-43.929,133.718H358.419C375.2,355.2,386.8,332.924,387.78,311.009Z" fill="#c5d9ff"/>
          </g>
        </g>
      </g>
    </g>
    <path id="路径_25" data-name="路径 25" d="M342.035,309.378a.5.5,0,0,1-.5-.5v-4.961a7.1,7.1,0,0,0-7.088-7.088h-1.9a6.927,6.927,0,0,1-6.92-6.92v-2.772a6.782,6.782,0,0,1,6.774-6.776h2.773A6.364,6.364,0,0,0,341.535,274a8.41,8.41,0,0,0-8.4-8.4H320.519a.5.5,0,0,1,0-1h12.615a9.411,9.411,0,0,1,9.4,9.4,7.366,7.366,0,0,1-7.358,7.357H332.4a5.781,5.781,0,0,0-5.774,5.776v2.772a5.926,5.926,0,0,0,5.92,5.92h1.9a8.1,8.1,0,0,1,8.088,8.088v4.961A.5.5,0,0,1,342.035,309.378Z" transform="translate(-69 -111)" fill="#243762" opacity="0.57"/>
    <path id="路径_26" data-name="路径 26" d="M359.9,310.15a.5.5,0,0,1-.5-.5v-3a4.1,4.1,0,0,0-4.091-4.089h-1.148a4.39,4.39,0,0,1-4.384-4.385V296.5a4.3,4.3,0,0,1,4.3-4.3h1.677a3.653,3.653,0,0,0,3.65-3.649,4.891,4.891,0,0,0-4.885-4.885h-7.633a.5.5,0,0,1,0-1h7.633a5.892,5.892,0,0,1,5.885,5.885,4.655,4.655,0,0,1-4.65,4.649h-1.677a3.3,3.3,0,0,0-3.3,3.3v1.678a3.389,3.389,0,0,0,3.384,3.385h1.148a5.1,5.1,0,0,1,5.091,5.089v3A.5.5,0,0,1,359.9,310.15Z" transform="translate(-69 -111)" fill="#243762" opacity="0.57"/>
    <path id="路径_27" data-name="路径 27" d="M377.191,357.432H367.169v-7h10.022a8.868,8.868,0,0,0,8.858-8.858v-10.6a3.9,3.9,0,0,0-3.9-3.9H369.5v-7h12.649a10.909,10.909,0,0,1,10.9,10.9v10.6A15.876,15.876,0,0,1,377.191,357.432Z" transform="translate(-69 -111)" fill="#22afe9"/>
    <path id="路径_28" data-name="路径 28" d="M377.191,350.932H367.169a.5.5,0,1,1,0-1h10.022a8.367,8.367,0,0,0,8.358-8.358v-10.6a3.4,3.4,0,0,0-3.4-3.4H369v-8h13.149a11.409,11.409,0,0,1,11.4,11.4v10.6a.5.5,0,0,1-1,0v-10.6a10.408,10.408,0,0,0-10.4-10.4H370v6h12.149a4.4,4.4,0,0,1,4.4,4.4v10.6A9.368,9.368,0,0,1,377.191,350.932Z" transform="translate(-69 -111)" fill="#6277a8"/>
    <path id="路径_29" data-name="路径 29" d="M366.968,370.787H329.854a7.476,7.476,0,0,1-7.475-7.476V314.018a4.446,4.446,0,0,1,4.447-4.446h41.938a5.68,5.68,0,0,1,5.68,5.68v48.059A7.476,7.476,0,0,1,366.968,370.787Z" transform="translate(-69 -111)" fill="#22afe9"/>
    <path id="路径_30" data-name="路径 30" d="M367.809,335.6H334.87c-3.664,0-6.635-1.673-6.635-3.738V311.8c0-1.228,1.767-2.223,3.947-2.223H369.4c2.785,0,5.042,1.271,5.042,2.84v19.454C374.444,333.931,371.473,335.6,367.809,335.6Z" transform="translate(-69 -111)" fill="#ecf1f7" opacity="0.35"/>
    <path id="路径_31" data-name="路径 31" d="M322.379,339.256a.5.5,0,0,1-.5-.5V314.019a4.953,4.953,0,0,1,4.947-4.948h41.938a.5.5,0,0,1,0,1H326.826a3.952,3.952,0,0,0-3.947,3.948v24.737A.5.5,0,0,1,322.379,339.256Z" transform="translate(-69 -111)" fill="#6277a8"/>
    <path id="路径_32" data-name="路径 32" d="M356.228,322.541H322.637a.5.5,0,0,1,0-1h33.591a.5.5,0,0,1,0,1Z" transform="translate(-69 -111)" fill="#6277a8"/>
    <path id="路径_33" data-name="路径 33" d="M195.443,243.336H184.967a5.9,5.9,0,0,1-5.537-3.81q-.592-1.589-1.311-3.114a5.767,5.767,0,0,1,1.156-6.594l7.408-7.288a5.735,5.735,0,0,0,0-8.206l-6.585-6.478a5.966,5.966,0,0,0-8.34,0l-7.408,7.288a6,6,0,0,1-6.7,1.138q-1.549-.707-3.166-1.29a5.81,5.81,0,0,1-3.872-5.448V199.228a5.851,5.851,0,0,0-5.9-5.8H135.4a5.851,5.851,0,0,0-5.9,5.8v10.306a5.81,5.81,0,0,1-3.873,5.448q-1.614.584-3.165,1.29a6,6,0,0,1-6.7-1.138l-7.408-7.288a5.966,5.966,0,0,0-8.34,0l-6.586,6.478a5.737,5.737,0,0,0,0,8.206l7.409,7.288a5.767,5.767,0,0,1,1.156,6.594q-.717,1.524-1.311,3.114a5.9,5.9,0,0,1-5.537,3.81H84.668a5.85,5.85,0,0,0-5.9,5.8V258.3a5.85,5.85,0,0,0,5.9,5.8H95.145a5.9,5.9,0,0,1,5.537,3.81q.593,1.59,1.311,3.115a5.765,5.765,0,0,1-1.156,6.593l-7.409,7.289a5.736,5.736,0,0,0,0,8.205l6.586,6.479a5.967,5.967,0,0,0,8.34,0l7.408-7.289a6,6,0,0,1,6.7-1.138q1.55.707,3.165,1.29A5.81,5.81,0,0,1,129.5,297.9v10.307a5.85,5.85,0,0,0,5.9,5.8h9.312a5.851,5.851,0,0,0,5.9-5.8V297.9a5.81,5.81,0,0,1,3.872-5.448q1.616-.582,3.166-1.29a6,6,0,0,1,6.7,1.138l7.408,7.289a5.968,5.968,0,0,0,8.34,0l6.585-6.479a5.734,5.734,0,0,0,0-8.205l-7.408-7.289a5.765,5.765,0,0,1-1.156-6.593q.717-1.525,1.311-3.115a5.9,5.9,0,0,1,5.537-3.81h10.476a5.85,5.85,0,0,0,5.9-5.8v-9.162A5.851,5.851,0,0,0,195.443,243.336Zm-55.387,41.617c-17.534,0-31.748-13.984-31.748-31.234s14.214-31.234,31.748-31.234S171.8,236.469,171.8,253.719,157.59,284.953,140.056,284.953Z" transform="translate(-69 -111)" fill="#22afe9"/>
    <path id="路径_35" data-name="路径 35" d="M193.462,200.184l-2.1-5.55a3.338,3.338,0,0,1,.911-3.7q.723-.631,1.388-1.318a3.266,3.266,0,0,1,3.724-.706l5.343,2.468a3.248,3.248,0,0,0,4.347-1.641l2.116-4.785a3.378,3.378,0,0,0-1.668-4.418l-5.343-2.468a3.4,3.4,0,0,1-1.943-3.323q.064-.962.05-1.935a3.29,3.29,0,0,1,2.112-3.141l5.46-2.061a3.313,3.313,0,0,0,1.9-4.285l-1.862-4.934a3.315,3.315,0,0,0-4.254-1.964l-5.46,2.061a3.289,3.289,0,0,1-3.661-.962q-.632-.739-1.316-1.419a3.4,3.4,0,0,1-.738-3.778l2.38-5.382a3.379,3.379,0,0,0-1.668-4.419l-4.749-2.193a3.248,3.248,0,0,0-4.347,1.641l-2.38,5.382a3.265,3.265,0,0,1-3.262,1.931q-.951-.075-1.912-.072a3.337,3.337,0,0,1-3.126-2.171l-2.1-5.55a3.312,3.312,0,0,0-4.253-1.965l-4.854,1.833a3.312,3.312,0,0,0-1.895,4.284l2.095,5.55a3.34,3.34,0,0,1-.911,3.7q-.723.631-1.388,1.318a3.263,3.263,0,0,1-3.724.705l-5.343-2.467a3.248,3.248,0,0,0-4.347,1.641l-2.115,4.784a3.378,3.378,0,0,0,1.667,4.419l5.343,2.467a3.4,3.4,0,0,1,1.943,3.323q-.064.963-.05,1.935a3.291,3.291,0,0,1-2.112,3.142l-5.46,2.061a3.313,3.313,0,0,0-1.9,4.284l1.863,4.934a3.312,3.312,0,0,0,4.253,1.964l5.46-2.061a3.29,3.29,0,0,1,3.661.963q.632.738,1.316,1.419a3.4,3.4,0,0,1,.738,3.778l-2.38,5.382a3.379,3.379,0,0,0,1.668,4.419l4.749,2.193a3.248,3.248,0,0,0,4.347-1.641l2.38-5.382a3.266,3.266,0,0,1,3.262-1.932q.951.076,1.912.072a3.34,3.34,0,0,1,3.126,2.172l2.1,5.55a3.312,3.312,0,0,0,4.253,1.964l4.854-1.832A3.313,3.313,0,0,0,193.462,200.184Zm-33.125-21.021a17.689,17.689,0,1,1,22.9,10.574A17.834,17.834,0,0,1,160.337,179.163Z" transform="translate(-69 -111)" fill="#c5d9ff"/>
    <path id="路径_36" data-name="路径 36" d="M296.906,184.125h65.94a2.1,2.1,0,0,1,2.1,2.1v48.38a3.716,3.716,0,0,1-3.716,3.716H335.79a1.073,1.073,0,0,0-.778.335l-21.146,22.391a1.074,1.074,0,0,1-1.844-.809V239.467a1.114,1.114,0,0,0-1.081-1.144H296.906a3.558,3.558,0,0,1-3.452-3.655V187.78A3.558,3.558,0,0,1,296.906,184.125Z" transform="translate(-69 -111)" fill="#8032b6"/>
    <g id="组_28" data-name="组 28" transform="translate(-69 -111)">
      <path id="路径_37" data-name="路径 37" d="M355.033,200.364H305.879a.375.375,0,0,1,0-.75h49.154a.375.375,0,0,1,0,.75Z" fill="#fff"/>
      <path id="路径_38" data-name="路径 38" d="M355.033,211.4h-22.11a.375.375,0,0,1,0-.75h22.11a.375.375,0,0,1,0,.75Z" fill="#fff"/>
      <path id="路径_39" data-name="路径 39" d="M328.665,211.4h-22.11a.375.375,0,1,1,0-.75h22.11a.375.375,0,0,1,0,.75Z" fill="#fff"/>
      <path id="路径_40" data-name="路径 40" d="M341.425,221.4h-33.1a.375.375,0,0,1,0-.75h33.1a.375.375,0,0,1,0,.75Z" fill="#fff"/>
    </g>
    <circle id="椭圆_7" data-name="椭圆 7" cx="20.374" cy="20.374" r="20.374" transform="translate(271.479 108.849)" fill="#22afe9"/>
    <g id="组_31" data-name="组 31" transform="translate(-69 -111)">
      <circle id="椭圆_8" data-name="椭圆 8" cx="16.366" cy="16.366" r="16.366" transform="translate(344.486 223.857)" fill="#ecf1f7"/>
      <path id="路径_41" data-name="路径 41" d="M360.852,257.09a16.867,16.867,0,1,1,16.867-16.867A16.886,16.886,0,0,1,360.852,257.09Zm0-32.733a15.867,15.867,0,1,0,15.867,15.866A15.885,15.885,0,0,0,360.852,224.357Z" fill="#6277a8"/>
    </g>
    <path id="路径_42" data-name="路径 42" d="M360.232,243.6a1.193,1.193,0,0,1-1.1-1.276l.838-11.059a.825.825,0,1,1,1.646.125l-.754,9.947,6.347-5.453a.825.825,0,0,1,1.075,1.252l-7.192,6.18A1.187,1.187,0,0,1,360.232,243.6Z" transform="translate(-69 -111)" fill="#6277a8"/>
    <path id="路径_43" data-name="路径 43" d="M120.445,245.906l.017.14,11.1,116.461,173.54,2.862L291.363,245.3a3.176,3.176,0,0,0-3.162-2.874H123.606A3.181,3.181,0,0,0,120.445,245.906Z" transform="translate(-69 -111)" fill="#677daf"/>
    <path id="路径_44" data-name="路径 44" d="M363.714,356.656H134.873a7.275,7.275,0,0,0-7.274,7.275v5.829H370.4v-6.417A6.687,6.687,0,0,0,363.714,356.656Z" transform="translate(-68 -111)" fill="#243762"/>
    <path id="路径_45" data-name="路径 45" d="M363.714,356.656H134.873a7.275,7.275,0,0,0-7.274,7.275v5.829H370.4v-6.417A6.687,6.687,0,0,0,363.714,356.656Z" transform="translate(-68 -111)" fill="#526693"/>
    <path id="路径_46" data-name="路径 46" d="M363.714,356.656H210.351a7.275,7.275,0,0,0-7.275,7.275v5.829H370.4v-6.417A6.687,6.687,0,0,0,363.714,356.656Z" transform="translate(-68 -111)" fill="#a78de0" opacity="0.29"/>
    <path id="路径_47" data-name="路径 47" d="M126.7,245.906l.016.14,10.547,110.61H308.237L297.616,245.3a3.175,3.175,0,0,0-3.161-2.874H129.86A3.18,3.18,0,0,0,126.7,245.906Z" transform="translate(-69 -111)" fill="#ecf1f7"/>
    <path id="路径_48" data-name="路径 48" d="M213.611,249.124a2.111,2.111,0,1,1,2.111-2.111A2.114,2.114,0,0,1,213.611,249.124Zm0-3.473a1.361,1.361,0,1,0,1.361,1.362A1.364,1.364,0,0,0,213.611,245.651Z" transform="translate(-69 -111)" fill="#243762"/>
    <path id="路径_49" data-name="路径 49" d="M146.381,348.415H297.2a1.781,1.781,0,0,0,1.821-1.916l-8.974-90a1.8,1.8,0,0,0-1.821-1.584H137.407a1.782,1.782,0,0,0-1.821,1.916l8.974,90A1.8,1.8,0,0,0,146.381,348.415Z" transform="translate(-69 -111)" fill="#fff"/>
    <path id="路径_50" data-name="路径 50" d="M290.974,264.341l-154.058.41-.87-8.053A1.753,1.753,0,0,1,138,254.991l148.327-.014c1.441,0,3.627.941,3.627,2.1Z" transform="translate(-69 -111)" fill="rgba(128,50,182,0.66)"/>
    <path id="路径_51" data-name="路径 51" d="M143.481,261.714a1.689,1.689,0,1,1,1.689-1.689A1.692,1.692,0,0,1,143.481,261.714Zm0-2.628a.939.939,0,1,0,.939.939A.941.941,0,0,0,143.481,259.086Z" transform="translate(-69 -111)" fill="#ecf1f7"/>
    <path id="路径_52" data-name="路径 52" d="M148.363,261.714a1.689,1.689,0,1,1,1.689-1.689A1.692,1.692,0,0,1,148.363,261.714Zm0-2.628a.939.939,0,1,0,.939.939A.941.941,0,0,0,148.363,259.086Z" transform="translate(-69 -111)" fill="#ecf1f7"/>
    <path id="路径_53" data-name="路径 53" d="M152.869,261.714a1.689,1.689,0,1,1,1.689-1.689A1.692,1.692,0,0,1,152.869,261.714Zm0-2.628a.939.939,0,1,0,.939.939A.941.941,0,0,0,152.869,259.086Z" transform="translate(-69 -111)" fill="#ecf1f7"/>
    <path id="路径_54" data-name="路径 54" d="M303.055,363.583H262.607a2.428,2.428,0,0,1-2.426-2.426v-4.5h.75v4.5a1.678,1.678,0,0,0,1.676,1.676h40.448a1.678,1.678,0,0,0,1.676-1.676v-4.5h.75v4.5A2.428,2.428,0,0,1,303.055,363.583Z" transform="translate(-68 -111)" fill="#ecf1f7"/>
    <path id="路径_55" data-name="路径 55" d="M137.9,365.744a2.7,2.7,0,1,1,2.7-2.7A2.7,2.7,0,0,1,137.9,365.744Zm0-4.646a1.948,1.948,0,1,0,1.949,1.948A1.95,1.95,0,0,0,137.9,361.1Z" transform="translate(-68 -111)" fill="#ecf1f7"/>
    <g id="组_34" data-name="组 34" transform="translate(-69 -111)" opacity="0.35">
      <path id="路径_57" data-name="路径 57" d="M199.972,285.723l-46.11,1.062a3.184,3.184,0,0,1-1.526-.157l-.057-2.448a3.086,3.086,0,0,1,1.873-.98l45.738-1.053c.841-.019,1.55,1.168,1.552,1.274l.048,2.076A3.188,3.188,0,0,1,199.972,285.723Z" fill="#af9cda"/>
      <path id="路径_58" data-name="路径 58" d="M200.548,310.715l-46.111,1.061a1.709,1.709,0,0,1-1.747-1.668l-.583-25.338a1.71,1.71,0,0,1,1.668-1.748l46.111-1.061a1.71,1.71,0,0,1,1.747,1.669l.583,25.338A1.711,1.711,0,0,1,200.548,310.715Zm-46.764-27.32a1.337,1.337,0,0,0-1.3,1.366l.583,25.338a1.337,1.337,0,0,0,1.366,1.3l46.111-1.061a1.337,1.337,0,0,0,1.3-1.366l-.583-25.339a1.337,1.337,0,0,0-1.367-1.3Z" fill="#af9cda"/>
      <path id="路径_59" data-name="路径 59" d="M201.5,285.874l-47.251,1.088a.186.186,0,1,1-.009-.372L201.49,285.5a.186.186,0,1,1,.008.372Z" fill="#af9cda"/>
      <path id="路径_60" data-name="路径 60" d="M154.516,285.835a.55.55,0,1,1,.537-.562A.551.551,0,0,1,154.516,285.835Zm-.021-.913a.364.364,0,1,0,.371.355A.363.363,0,0,0,154.495,284.922Z" fill="#ecf1f7"/>
      <path id="路径_61" data-name="路径 61" d="M156.171,285.8a.55.55,0,1,1,.537-.562A.55.55,0,0,1,156.171,285.8Zm-.021-.913a.364.364,0,1,0,.372.355A.365.365,0,0,0,156.15,284.884Z" fill="#ecf1f7"/>
      <path id="路径_62" data-name="路径 62" d="M157.743,285.761a.55.55,0,1,1,.537-.563A.55.55,0,0,1,157.743,285.761Zm-.021-.913a.363.363,0,1,0,.372.355A.363.363,0,0,0,157.722,284.848Z" fill="#ecf1f7"/>
      <path id="路径_63" data-name="路径 63" d="M158.3,297.125l-.1-4.218,36.523-.841.1,4.218Zm.414-3.729.074,3.217,35.522-.817-.073-3.218Z" fill="#af9cda"/>
      <path id="路径_64" data-name="路径 64" d="M158.451,303.477l-.1-4.218,36.523-.841.1,4.218Zm.414-3.73.074,3.218,35.523-.818-.074-3.217Z" fill="#af9cda"/>
    </g>
    <g id="组_35" data-name="组 35" transform="translate(-69 -111)" opacity="0.35">
      <path id="路径_65" data-name="路径 65" d="M285.4,296.36l-46.111,1.061a3.182,3.182,0,0,1-1.526-.156l-.056-2.448a3.084,3.084,0,0,1,1.872-.981l45.739-1.052c.84-.019,1.549,1.168,1.552,1.274l.047,2.075A3.175,3.175,0,0,1,285.4,296.36Z" fill="#af9cda"/>
      <path id="路径_66" data-name="路径 66" d="M285.977,321.352l-46.111,1.061a1.711,1.711,0,0,1-1.747-1.669l-.583-25.338a1.711,1.711,0,0,1,1.669-1.747l46.11-1.061a1.711,1.711,0,0,1,1.748,1.668l.583,25.339A1.711,1.711,0,0,1,285.977,321.352Zm-46.764-27.321a1.339,1.339,0,0,0-1.3,1.367l.584,25.338a1.337,1.337,0,0,0,1.366,1.3l46.11-1.062a1.337,1.337,0,0,0,1.305-1.366l-.583-25.338a1.338,1.338,0,0,0-1.366-1.3Z" fill="#af9cda"/>
      <path id="路径_67" data-name="路径 67" d="M286.928,296.511,239.676,297.6a.187.187,0,0,1-.009-.373l47.252-1.087a.186.186,0,1,1,.009.372Z" fill="#af9cda"/>
      <path id="路径_68" data-name="路径 68" d="M239.945,296.472a.55.55,0,1,1,.537-.563A.55.55,0,0,1,239.945,296.472Zm-.021-.913a.363.363,0,1,0,.372.355A.363.363,0,0,0,239.924,295.559Z" fill="#ecf1f7"/>
      <path id="路径_69" data-name="路径 69" d="M241.6,296.433a.55.55,0,1,1,.537-.562A.55.55,0,0,1,241.6,296.433Zm-.021-.912a.363.363,0,1,0,.372.355A.362.362,0,0,0,241.58,295.521Z" fill="#ecf1f7"/>
      <path id="路径_70" data-name="路径 70" d="M243.173,296.4a.55.55,0,1,1,.536-.562A.55.55,0,0,1,243.173,296.4Zm-.021-.912a.363.363,0,1,0,.371.354A.364.364,0,0,0,243.152,295.485Z" fill="#ecf1f7"/>
      <path id="路径_71" data-name="路径 71" d="M243.734,307.762l-.1-4.218,36.522-.841.1,4.218Zm.414-3.73.074,3.218,35.523-.817-.074-3.218Z" fill="#af9cda"/>
      <path id="路径_72" data-name="路径 72" d="M243.88,314.113l-.1-4.217,36.523-.841.1,4.217Zm.414-3.729.075,3.218,35.522-.818-.074-3.218Z" fill="#af9cda"/>
    </g>
    <path id="路径_73" data-name="路径 73" d="M250.549,305.851a36.232,36.232,0,0,0-20.434,6.288l.015-.03-7.369-31.01h-8.639l-7.368,31.01.02.034a36.406,36.406,0,0,0-56.326,36.37H286.435a36.4,36.4,0,0,0-35.886-42.662Z" transform="translate(-69 -111)" fill="#fff"/>
    <path id="路径_74" data-name="路径 74" d="M258.7,326.192a17.717,17.717,0,0,0-4.886-19.7c-7.881-14-26.64-53.265-10.682-86.17l-7.969-5.96s-49.042,20.827-50.816,93.95a17.677,17.677,0,0,0-3.6,16.317,10.355,10.355,0,1,0,9.71,17.425,16.982,16.982,0,0,0,21.46.681,10.337,10.337,0,0,0,13.261-.182,16.988,16.988,0,0,0,20.978.094A10.356,10.356,0,1,0,258.7,326.192Z" transform="translate(-69 -111)" fill="#c5d9ff" opacity="0.63"/>
    <path id="路径_75" data-name="路径 75" d="M246.947,304.757a13.274,13.274,0,0,0,1.09-4.7c.177-3.99-7.866-6.929-10.535-9.5-5.435-10.738-8.478-46.041,4.553-70.139l-6.893-5.177s-35.1,18.466-38.843,73.132c-2.089,2.241-7.853,5.742-8,9.042a13.324,13.324,0,0,0,.339,3.59,7.757,7.757,0,1,0,6.691,13.361,12.721,12.721,0,0,0,16.038,1.22,7.745,7.745,0,0,0,9.93.3,12.727,12.727,0,0,0,15.7.764,7.758,7.758,0,1,0,9.932-11.9Z" transform="translate(-69 -111)" fill="#ecf1f7" opacity="0.63"/>
    <g id="组_36" data-name="组 36" transform="translate(-69 -111)">
      <path id="路径_80" data-name="路径 80" d="M263.579,335.507a23.309,23.309,0,0,0-15.638,6,30.1,30.1,0,0,0-58.664.534,23.389,23.389,0,0,0-37.171,6.475H284.543A23.393,23.393,0,0,0,263.579,335.507Z" fill="#c5d9ff"/>
    </g>
    <g id="组_38" data-name="组 38" transform="translate(-69 -111)">
      <g id="组_37" data-name="组 37">
        <path id="路径_81" data-name="路径 81" d="M186.334,305.851a36.4,36.4,0,0,0-35.886,42.662h64.216a36.354,36.354,0,0,1,3.777-23.448A36.416,36.416,0,0,0,186.334,305.851Z" fill="#c5d9ff" opacity="0.66"/>
        <path id="路径_82" data-name="路径 82" d="M250.549,305.851a36.419,36.419,0,0,0-32.108,19.214,36.37,36.37,0,0,1,3.778,23.448h64.216a36.4,36.4,0,0,0-35.886-42.662Z" fill="#c5d9ff" opacity="0.66"/>
      </g>
    </g>
    <path id="路径_83" data-name="路径 83" d="M292.066,152.935a1.887,1.887,0,0,0-2.916,2.176l-3.835,4.967c-11.525-.258-26.489,10.049-33.159,18.687l-7.635,9.887c-.7.9-1.357,1.83-1.988,2.774l.1-.388-4-.8a12.893,12.893,0,0,0-14.355,7.534l-10.75,24.9a5.018,5.018,0,0,0,5.843-1.913l5.017-7.412a11.878,11.878,0,0,1,11-5.159,49.419,49.419,0,0,0-1.074,7.609l3.931,3.036h0l-3.931-3.036-2,6.389,2.093,1.616L226,234.692c-.742.961-2.213,4.567-1.2,5.351s4.131-1.551,4.873-2.513l7.138-9.243h0l1.269-1.643,2.127,1.643,5.641-3.577h0a49.228,49.228,0,0,0,7.019-2.926,11.874,11.874,0,0,1-2.255,11.82l-5.9,6.729a5.021,5.021,0,0,0-.374,6.138l21.372-16.7a12.894,12.894,0,0,0,3.658-15.794l-1.778-3.66c.669-.763,1.321-1.543,1.943-2.35l7.635-9.887a53.007,53.007,0,0,0,7.206-13.509.351.351,0,0,0,.086-.108c2.89-7.832,4.32-16.592,2.413-23.206l3.823-4.951a1.888,1.888,0,0,0,1.367-3.372Z" transform="translate(-69 -111)" fill="#243762" opacity="0.29"/>
    <path id="路径_84" data-name="路径 84" d="M269.27,203.163l1.7,3.5a12.309,12.309,0,0,1-3.493,15.078l-20.4,15.942h0a4.791,4.791,0,0,1,.356-5.859l5.634-6.424a11.338,11.338,0,0,0,.831-13.881h0Z" transform="translate(-69 -111)" fill="#af9cda"/>
    <path id="路径_85" data-name="路径 85" d="M269.27,203.163l1.7,3.5a12.309,12.309,0,0,1-3.493,15.078l-20.4,15.942h0a4.791,4.791,0,0,1,.356-5.859l5.634-6.424a11.338,11.338,0,0,0,.831-13.881h0Z" transform="translate(-69 -111)" fill="#412462" opacity="0.29"/>
    <path id="路径_86" data-name="路径 86" d="M245.44,184.763l-3.816-.76a12.309,12.309,0,0,0-13.7,7.193l-10.263,23.772h0a4.793,4.793,0,0,0,5.579-1.827l4.79-7.076a11.337,11.337,0,0,1,13.219-4.315h0Z" transform="translate(-69 -111)" fill="#ab78cf"/>
    <rect id="矩形_5" data-name="矩形 5" width="7.636" height="1.868" transform="matrix(0.611, -0.792, 0.792, 0.611, 216.776, 44.744)" fill="#fff"/>
    <path id="路径_89" data-name="路径 89" d="M287.345,157.586l-2.27-1.752L290.352,149l2.271,1.753Zm-.868-1.933.688.531,4.055-5.252-.687-.531Z" transform="translate(-69 -111)" fill="#6277a8"/>
    <path id="路径_90" data-name="路径 90" d="M292.963,150.92a1.806,1.806,0,1,1-.326-2.534A1.806,1.806,0,0,1,292.963,150.92Z" transform="translate(-69 -111)" fill="#f7a9b4"/>
    <path id="路径_91" data-name="路径 91" d="M291.529,152.123a2.307,2.307,0,0,1-1.821-3.717,2.307,2.307,0,1,1,3.651,2.82h0a2.3,2.3,0,0,1-1.531.878A2.529,2.529,0,0,1,291.529,152.123Zm.006-3.613a1.306,1.306,0,1,0,.8.272A1.3,1.3,0,0,0,291.535,148.51Z" transform="translate(-69 -111)" fill="#6277a8"/>
    <path id="路径_92" data-name="路径 92" d="M287.365,155.383s0-.115-.039-.118c-.014-.039-.124-.008-.124-.008-11.122-.909-26.1,9.288-32.667,17.788l-7.289,9.44A47.168,47.168,0,0,0,237.5,208.4l5.231,4.04.552.426,5.232,4.04h0a47.171,47.171,0,0,0,22.611-15.984l7.289-9.439C284.982,182.986,291.058,165.913,287.365,155.383Z" transform="translate(-69 -111)" fill="#fff"/>
    <path id="路径_93" data-name="路径 93" d="M242.733,212.444l.533.411,5.047,3.9h0A48.384,48.384,0,0,0,270.7,200.594l7.289-9.44c6.564-8.5,12.8-25.452,9.366-35.781,0,0,0-.113-.036-.116-.013-.038-.122-.006-.122-.006" transform="translate(-69 -111)" fill="#ecf1f7"/>
    <path id="路径_94" data-name="路径 94" d="M287.4,155.407s0-.115-.04-.118c-.013-.039-.124-.008-.124-.008-6.839-.559-15.138,3.082-22.041,7.945-2.138,1.507,19.245,17.813,20.187,15.261C288.274,170.641,289.643,161.813,287.4,155.407Z" transform="translate(-69 -111)" fill="#af9cda"/>
    <path id="路径_95" data-name="路径 95" d="M287.4,155.407s0-.115-.04-.118c-.013-.039-.124-.008-.124-.008-6.839-.559-15.138,3.082-22.041,7.945-2.138,1.507,19.245,17.813,20.187,15.261C288.274,170.641,289.643,161.813,287.4,155.407Z" transform="translate(-69 -111)" fill="#8f79b7" opacity="0.29"/>
    <path id="路径_96" data-name="路径 96" d="M272.2,188.753a8.5,8.5,0,1,1-1.532-11.919A8.5,8.5,0,0,1,272.2,188.753Z" transform="translate(-69 -111)" fill="#af9cda"/>
    <path id="路径_97" data-name="路径 97" d="M265.467,192.554a8.995,8.995,0,1,1,7.133-3.495h0A8.987,8.987,0,0,1,265.467,192.554Zm.02-16.989a8,8,0,1,0,6.321,12.883h0a7.994,7.994,0,0,0-6.321-12.883Z" transform="translate(-69 -111)" fill="#6277a8"/>
    <path id="路径_98" data-name="路径 98" d="M270.589,187.507a6.458,6.458,0,1,1-1.165-9.059A6.458,6.458,0,0,1,270.589,187.507Z" transform="translate(-69 -111)" fill="#c5d9ff"/>
    <path id="路径_99" data-name="路径 99" d="M267.478,183.008a2.872,2.872,0,1,1-.518-4.028A2.871,2.871,0,0,1,267.478,183.008Z" transform="translate(-69 -111)" fill="#ecf1f7"/>
    <path id="路径_100" data-name="路径 100" d="M237.5,208.4l-1.909,6.1,7.538,5.821,5.385-3.414Z" transform="translate(-69 -111)" fill="#f7a9b4"/>
    <path id="路径_101" data-name="路径 101" d="M243.1,220.934l-8.091-6.248,2.227-7.116,12.148,9.38Zm-6.929-6.614,6.986,5.394,4.486-2.845-9.881-7.63Z" transform="translate(-69 -111)" fill="#6277a8"/>
    <path id="路径_102" data-name="路径 102" d="M228.422,231.547h0c-.969-.748.436-4.19,1.144-5.108l23.8-30.827a2.16,2.16,0,0,1,3.037-.306h0a2.16,2.16,0,0,1,.472,3.016l-23.8,30.827C232.367,230.066,229.391,232.3,228.422,231.547Z" transform="translate(-69 -111)" fill="#ab78cf"/>
  </g>
</svg>
